# xmcd
#
# Track frame offsets: 
#        187
#        18857
#        41035
#        57352
#        74067
#        94255
#        108500
#        123460
#        137275
#        153000
#        170400
#        185650
#
# Disc length: 2661 seconds
#
# Revision: 0
# Processed by: cddbd v1.5.2PL0 Copyright (c) Steve Scherf et al.
# Submitted via: ExactAudioCopy v0.90b4
#
DISCID=a20a630c
DTITLE=Coalrangers - Home Tonight
DYEAR=1998
DGENRE=Country
TTITLE0=Stand Me On My Feet
TTITLE1=Home Tonight
TTITLE2=Lovers Do
TTITLE3=If It's Alright With You
TTITLE4=Love Me Today
TTITLE5=Stuck In The Middle Of Nowhere
TTITLE6=Under The Wheel
TTITLE7=Loud Whispering Lies
TTITLE8=Do You Have A Problem With That
TTITLE9=Cowboys And Angels
TTITLE10=Golden Hands
TTITLE11=Louisville, Otira
EXTD=
EXTT0=
EXTT1=
EXTT2=
EXTT3=
EXTT4=
EXTT5=
EXTT6=
EXTT7=
EXTT8=
EXTT9=
EXTT10=
EXTT11=
PLAYORDER=
